<?xml version="1.0" encoding="UTF-8"?><svg xmlns="http://www.w3.org/2000/svg" viewBox="0 0 2551.36 2547.56"><g id="a"><rect x="28.76" y="46.14" width="2482.36" height="2482.36" rx="370.12" ry="370.12" style="stroke:#00ff04; stroke-miterlimit:10;"/></g><g id="b"><rect x="211.76" y="229.32" width="1029.21" height="1029.21" rx="319.77" ry="319.77" style="fill:#f60; stroke:#00ff04; stroke-miterlimit:10;"/></g><g id="c"><rect x="1299.91" y="203.71" width="1029.21" height="1029.21" rx="319.77" ry="319.77" style="fill:red; stroke:#00ff04; stroke-miterlimit:10;"/></g><g id="d"><rect x="1320.21" y="1326.32" width="1029.21" height="1029.21" rx="319.77" ry="319.77" style="fill:#0c0; stroke:#00ff04; stroke-miterlimit:10;"/></g><g id="e"><rect x="211.76" y="1326.32" width="1029.21" height="1029.21" rx="319.77" ry="319.77" style="fill:#30f; stroke:#00ff04; stroke-miterlimit:10;"/></g><g id="f"><rect x="255.13" y="271.01" width="2021.41" height="2021.41" rx="395.98" ry="395.98" transform="translate(1277.07 -519.67) rotate(45)" style="fill:#b200ff; stroke:#00ff04; stroke-miterlimit:10;"/></g><g id="g"><g><path d="M603.75,922.08l210.06,622.52,210.67-626.94c10.97-32.94,19.19-55.84,24.67-68.72s14.56-24.48,27.22-34.83,29.94-15.52,51.88-15.52c16.03,0,30.89,4.02,44.61,12.03,13.7,8.03,24.45,18.69,32.27,31.98,7.8,13.3,11.7,26.7,11.7,40.2,0,9.3-1.27,19.33-3.8,30.09s-5.7,21.31-9.5,31.66-7.59,21-11.38,31.97l-224.61,606.66c-8.02,23.22-16.03,45.28-24.05,66.17-8.02,20.91-17.3,39.27-27.83,55.09-10.55,15.84-24.58,28.83-42.08,38.95-17.5,10.11-38.91,15.19-64.22,15.19s-46.72-4.97-64.22-14.88c-17.5-9.92-31.64-23.02-42.39-39.27s-20.14-34.72-28.16-55.41-16.03-42.64-24.03-65.86l-220.81-601.59c-3.8-10.97-7.7-21.72-11.7-32.28-4.02-10.56-7.39-21.95-10.12-34.2-2.75-12.23-4.11-22.58-4.11-31.03,0-21.53,8.64-41.16,25.94-58.89,17.28-17.72,39.02-26.59,65.17-26.59,32.05,0,54.72,9.83,68,29.45s26.89,50.97,40.81,94.03Z" style="fill:#fff;"/><path d="M1754.25,1742.59h-283.78c-40.97,0-70.2-9.17-87.73-27.53s-26.28-47.58-26.28-87.67V929.8c0-40.92,8.97-70.36,26.92-88.3,17.94-17.94,46.97-26.91,87.09-26.91h300.89c44.34,0,82.77,2.75,115.28,8.22,32.52,5.48,61.66,16.02,87.42,31.61,21.88,13.09,41.23,29.66,58.06,49.7s29.66,42.2,38.5,66.47c8.84,24.28,13.27,49.92,13.27,76.92,0,92.86-46.3,160.81-138.86,203.86,121.61,38.83,182.42,114.38,182.42,226.64,0,51.91-13.27,98.66-39.77,140.22-26.52,41.58-62.28,72.28-107.31,92.11-28.3,11.81-60.81,20.14-97.55,24.98-36.75,4.84-79.61,7.27-128.58,7.27Zm-209.8-787v240h172.41c46.91,0,83.14-4.42,108.7-13.3,25.56-8.86,45.11-25.75,58.64-50.66,10.61-17.72,15.92-37.56,15.92-59.53,0-46.84-16.7-77.98-50.09-93.39s-84.31-23.12-152.78-23.12h-152.8Zm195.86,375h-195.86v271h202.2c127.19,0,190.8-45.8,190.8-137.41,0-46.84-16.48-80.83-49.45-101.94-32.97-21.09-82.19-31.66-147.69-31.66Z" style="fill:#fff;"/></g></g></svg>